<?xml version="1.0" encoding="utf-8"?>
<!-- Generator: Adobe Illustrator 16.0.4, SVG Export Plug-In . SVG Version: 6.00 Build 0)  -->
<!DOCTYPE svg PUBLIC "-//W3C//DTD SVG 1.1//EN" "http://www.w3.org/Graphics/SVG/1.1/DTD/svg11.dtd">
<svg version="1.1" id="Layer_1" xmlns="http://www.w3.org/2000/svg" xmlns:xlink="http://www.w3.org/1999/xlink" x="0px" y="0px"
	 width="236.578px" height="30.298px" viewBox="0 0 236.578 30.298" enable-background="new 0 0 236.578 30.298"
	 xml:space="preserve">
<g>
	<path fill="#FFFFFF" d="M1.848,18.548c0,0,2.476,2.508,5.941,2.508c2.178,0,4.027-1.221,4.027-3.432
		c0-5.05-11.288-3.96-11.288-11.123C0.528,2.871,3.664,0,8.053,0c4.324,0,6.601,2.343,6.601,2.343L13.169,5.05
		c0,0-2.146-2.014-5.116-2.014c-2.476,0-4.225,1.551-4.225,3.399c0,4.819,11.288,3.532,11.288,11.09
		c0,3.598-2.772,6.568-7.393,6.568C2.772,24.093,0,21.024,0,21.024L1.848,18.548z"/>
	<path fill="#FFFFFF" d="M18.58,9.802h-2.179V7.228h2.277V2.409h3.103v4.819h4.027v2.574h-4.027v7.426
		c0,3.333,2.343,3.762,3.564,3.762c0.462,0,0.759-0.066,0.759-0.066v2.838c0,0-0.462,0.066-1.122,0.066
		c-2.146,0-6.403-0.66-6.403-6.238V9.802z"/>
	<path fill="#FFFFFF" d="M36.333,6.601c4.984,0,9.01,3.664,9.01,8.713c0,5.083-4.026,8.779-9.01,8.779
		c-4.983,0-9.01-3.696-9.01-8.779C27.323,10.264,31.35,6.601,36.333,6.601z M36.333,21.321c3.168,0,5.743-2.508,5.743-6.007
		c0-3.465-2.575-5.941-5.743-5.941c-3.135,0-5.743,2.476-5.743,5.941C30.591,18.812,33.198,21.321,36.333,21.321z"/>
	<path fill="#FFFFFF" d="M55.738,6.601c4.191,0,6.271,2.442,6.271,2.442l-1.518,2.245c0,0-1.782-1.915-4.621-1.915
		c-3.367,0-5.809,2.508-5.809,5.941c0,3.399,2.442,6.007,5.908,6.007c3.103,0,5.148-2.244,5.148-2.244l1.288,2.343
		c0,0-2.311,2.673-6.667,2.673c-5.248,0-8.944-3.729-8.944-8.746C46.793,10.396,50.49,6.601,55.738,6.601z"/>
	<path fill="#FFFFFF" d="M64.877,0.396h3.202v12.74h2.343l4.555-6.139h3.63l-5.545,7.36v0.066l6.172,9.274h-3.729l-5.017-7.855
		h-2.409v7.855h-3.202V0.396z"/>
	<path fill="#FFFFFF" d="M81.08,6.997h2.938v1.419c0,0.66-0.066,1.221-0.066,1.221h0.066c0,0,1.419-3.037,5.611-3.037
		c4.489,0,7.327,3.565,7.327,8.747c0,5.313-3.202,8.746-7.558,8.746c-3.664,0-5.116-2.739-5.116-2.739h-0.066
		c0,0,0.066,0.594,0.066,1.452v7.492H81.08V6.997z M88.902,21.354c2.64,0,4.819-2.178,4.819-5.974c0-3.63-1.948-5.974-4.72-5.974
		c-2.508,0-4.819,1.749-4.819,6.007C84.182,18.383,85.833,21.354,88.902,21.354z"/>
	<path fill="#FFFFFF" d="M99.725,0.396h3.202v8.548c0,0.792-0.066,1.386-0.066,1.386h0.066c0.726-1.618,2.838-3.73,6.172-3.73
		c3.927,0,5.743,2.146,5.743,6.403v10.693h-3.202V13.73c0-2.343-0.495-4.192-3.168-4.192c-2.508,0-4.587,1.716-5.281,4.126
		c-0.198,0.66-0.264,1.419-0.264,2.211v7.822h-3.202V0.396z"/>
	<path fill="#FFFFFF" d="M126.257,6.601c4.984,0,9.01,3.664,9.01,8.713c0,5.083-4.026,8.779-9.01,8.779
		c-4.983,0-9.01-3.696-9.01-8.779C117.247,10.264,121.274,6.601,126.257,6.601z M126.257,21.321c3.168,0,5.743-2.508,5.743-6.007
		c0-3.465-2.575-5.941-5.743-5.941c-3.135,0-5.743,2.476-5.743,5.941C120.515,18.812,123.122,21.321,126.257,21.321z"/>
	<path fill="#FFFFFF" d="M138.599,9.802h-2.179V7.228h2.277V2.409h3.103v4.819h4.027v2.574H141.8v7.426
		c0,3.333,2.343,3.762,3.564,3.762c0.462,0,0.759-0.066,0.759-0.066v2.838c0,0-0.462,0.066-1.122,0.066
		c-2.146,0-6.403-0.66-6.403-6.238V9.802z"/>
	<path fill="#FFFFFF" d="M156.353,6.601c4.984,0,9.01,3.664,9.01,8.713c0,5.083-4.026,8.779-9.01,8.779
		c-4.983,0-9.01-3.696-9.01-8.779C147.342,10.264,151.369,6.601,156.353,6.601z M156.353,21.321c3.168,0,5.743-2.508,5.743-6.007
		c0-3.465-2.575-5.941-5.743-5.941c-3.135,0-5.743,2.476-5.743,5.941C150.61,18.812,153.217,21.321,156.353,21.321z"/>
	<path fill="#FFFFFF" d="M168.265,21.057h2.607v2.641h-2.607V21.057z"/>
	<path fill="#FFFFFF" d="M182.752,6.7c4.06,0,6.073,2.376,6.073,2.376l-1.155,1.683c0,0-1.848-2.013-4.852-2.013
		c-3.63,0-6.469,2.707-6.469,6.667c0,3.895,2.872,6.667,6.535,6.667c3.367,0,5.314-2.343,5.314-2.343l1.023,1.749
		c0,0-2.244,2.607-6.469,2.607c-4.918,0-8.713-3.531-8.713-8.68C174.039,10.297,177.868,6.7,182.752,6.7z"/>
	<path fill="#FFFFFF" d="M199.714,6.7c4.852,0,8.779,3.697,8.779,8.614c0,5.017-3.928,8.779-8.779,8.779
		c-4.852,0-8.779-3.763-8.779-8.779C190.935,10.396,194.862,6.7,199.714,6.7z M199.714,22.08c3.564,0,6.469-2.904,6.469-6.766
		c0-3.762-2.904-6.568-6.469-6.568s-6.469,2.806-6.469,6.568C193.245,19.176,196.15,22.08,199.714,22.08z"/>
	<path fill="#FFFFFF" d="M211.527,7.096h2.211v2.476c0,0.726-0.066,1.32-0.066,1.32h0.066c0.792-2.245,3.433-4.192,6.007-4.192
		c3.069,0,4.653,1.419,5.148,4.159h0.066c0.891-2.244,3.301-4.159,6.106-4.159c4.027,0,5.512,2.343,5.512,6.436v10.562h-2.244v-10
		c0-2.707-0.561-4.951-3.598-4.951c-2.541,0-4.621,2.244-5.248,4.687c-0.231,0.726-0.297,1.519-0.297,2.41v7.855h-2.244v-10
		c0-2.508-0.363-4.951-3.499-4.951c-2.707,0-4.752,2.343-5.446,4.885c-0.165,0.693-0.231,1.452-0.231,2.211v7.855h-2.244V7.096z"/>
</g>
</svg>
